<?xml version="1.0" encoding="UTF-8"?>
<svg id="Capa_1" data-name="Capa 1" xmlns="http://www.w3.org/2000/svg" xmlns:xlink="http://www.w3.org/1999/xlink" viewBox="0 0 859.2 743.34">
  <defs>
    <style>
      .cls-1 {
        fill: #fff;
      }

      .cls-1, .cls-2, .cls-3 {
        stroke-width: 0px;
      }

      .cls-2 {
        fill: url(#Degradado_sin_nombre);
      }

      .cls-3 {
        fill: url(#Degradado_sin_nombre_2);
      }
    </style>
    <linearGradient id="Degradado_sin_nombre" data-name="Degradado sin nombre" x1="224.28" y1="373.68" x2="740.29" y2="373.68" gradientTransform="translate(0 745.34) scale(1 -1)" gradientUnits="userSpaceOnUse">
      <stop offset="0" stop-color="#2581c4"/>
      <stop offset="1" stop-color="#2581c4" stop-opacity="0"/>
    </linearGradient>
    <linearGradient id="Degradado_sin_nombre_2" data-name="Degradado sin nombre 2" x1="551.81" y1="235.12" x2="856.07" y2="235.12" gradientTransform="translate(0 745.34) scale(1 -1)" gradientUnits="userSpaceOnUse">
      <stop offset="0" stop-color="#2581c4" stop-opacity="0"/>
      <stop offset="1" stop-color="#2581c4"/>
    </linearGradient>
  </defs>
  <path class="cls-2" d="M529.72,588.42c-119.71,0-216.75-97.04-216.75-216.75s97.04-216.75,216.75-216.75c54.36,0,104.04,20.01,142.08,53.06l68.49-57.57c-54.79-52.17-128.94-84.19-210.57-84.19-168.69,0-305.44,136.75-305.44,305.44s136.75,305.44,305.44,305.44c80.87,0,154.4-31.44,209.05-82.75l-67.44-58.59c-38,32.82-87.49,52.66-141.61,52.66Z"/>
  <path class="cls-1" d="M540,635.42c-145.67,0-263.75-118.08-263.75-263.75S394.33,107.92,540,107.92c66.14,0,126.6,24.35,172.89,64.57l83.34-70.05C729.55,38.97,639.33,0,540,0,334.73,0,168.33,166.4,168.33,371.67s166.4,371.67,371.67,371.67c98.41,0,187.88-38.25,254.37-100.69l-82.07-71.29c-46.22,39.92-106.44,64.06-172.3,64.06Z"/>
  <polygon class="cls-3" points="856.07 640.21 551.81 380.24 856.07 380.24 856.07 640.21"/>
  <polygon class="cls-1" points="859.2 604.29 593.87 377.65 859.2 377.65 859.2 604.29"/>
</svg>